<?xml version="1.0" encoding="utf-8"?>
<!-- Generator: Adobe Illustrator 16.0.0, SVG Export Plug-In . SVG Version: 6.00 Build 0)  -->
<!DOCTYPE svg PUBLIC "-//W3C//DTD SVG 1.0//EN" "http://www.w3.org/TR/2001/REC-SVG-20010904/DTD/svg10.dtd">
<svg version="1.0" id="Shape_1_xA0_Image_1_" xmlns="http://www.w3.org/2000/svg" xmlns:xlink="http://www.w3.org/1999/xlink"
	 x="0px" y="0px" width="2340.234px" height="2312.087px" viewBox="0 0 2340.234 2312.087"
	 enable-background="new 0 0 2340.234 2312.087" xml:space="preserve">
<path fill="#FFFFFF" d="M1100.941,1621.268H917.942c-8.979,0-16.259-7.279-16.259-16.259s7.279-16.259,16.259-16.259h182.999
	c8.979,0,16.259,7.279,16.259,16.259S1109.92,1621.268,1100.941,1621.268z"/>
<path fill="#FFFFFF" d="M1069.92,1744.331H917.94c-8.979,0-16.259-7.279-16.259-16.259s7.279-16.259,16.259-16.259h151.98
	c8.979,0,16.259,7.279,16.259,16.259S1078.9,1744.331,1069.92,1744.331z"/>
<path fill="#FFFFFF" d="M2076.882,1733.667h-32.518c0-30.917-10.367-59.578-29.192-80.704
	c-18.213-20.439-42.475-31.696-68.314-31.696h-100.932v-32.518h100.932c35.241,0,68.124,15.122,92.592,42.58
	C2063.588,1658.42,2076.882,1694.764,2076.882,1733.667z"/>
<path fill="#FFFFFF" d="M1403.002,1621.268h-182.997c-8.979,0-16.259-7.279-16.259-16.259s7.279-16.259,16.259-16.259h182.997
	c8.979,0,16.259,7.279,16.259,16.259S1411.982,1621.268,1403.002,1621.268z"/>
<path fill="#FFFFFF" d="M1371.983,1744.331h-151.978c-8.979,0-16.259-7.279-16.259-16.259s7.279-16.259,16.259-16.259h151.978
	c8.979,0,16.259,7.279,16.259,16.259S1380.962,1744.331,1371.983,1744.331z"/>
<path fill="#FFFFFF" d="M375.346,1884.175c-40.203,0-77.999-15.656-106.427-44.085c-28.427-28.426-44.083-66.222-44.083-106.425
	c0-40.203,15.655-77.999,44.083-106.426c28.428-28.427,66.224-44.083,106.427-44.083s77.999,15.656,106.425,44.083
	c6.349,6.35,6.349,16.644,0,22.993c-6.35,6.35-16.645,6.349-22.993,0c-22.285-22.286-51.915-34.559-83.432-34.559
	s-61.147,12.273-83.434,34.559c-22.286,22.286-34.559,51.916-34.559,83.433c0,31.517,12.273,61.147,34.559,83.432
	c22.286,22.287,51.917,34.561,83.434,34.561c31.517,0,61.147-12.273,83.432-34.56c6.35-6.35,16.644-6.351,22.993-0.001
	s6.35,16.644,0.001,22.993C453.344,1868.519,415.548,1884.175,375.346,1884.175z"/>
<path fill="#FFFFFF" d="M917.94,1878.582c-8.979,0-16.259-7.279-16.259-16.259v-257.313c0-8.979,7.279-16.258,16.259-16.258
	s16.259,7.279,16.259,16.258v257.313C934.199,1871.302,926.919,1878.582,917.94,1878.582z"/>
<path fill="#FFFFFF" d="M1100.941,1878.582H917.942c-8.979,0-16.259-7.279-16.259-16.259s7.279-16.259,16.259-16.259h182.999
	c8.979,0,16.259,7.279,16.259,16.259S1109.92,1878.582,1100.941,1878.582z"/>
<path fill="#FFFFFF" d="M1220.005,1878.582c-8.979,0-16.259-7.279-16.259-16.259v-257.313c0-8.979,7.279-16.258,16.259-16.258
	s16.259,7.279,16.259,16.258v257.313C1236.264,1871.302,1228.985,1878.582,1220.005,1878.582z"/>
<path fill="#FFFFFF" d="M1846.506,1878.582c-8.979,0-16.259-7.279-16.259-16.259v-257.313c0-8.979,7.279-16.258,16.259-16.258
	s16.259,7.279,16.259,16.258v257.313C1862.765,1871.302,1855.486,1878.582,1846.506,1878.582z"/>
<path fill="#FFFFFF" d="M1522.069,1878.582c-8.979,0-16.259-7.279-16.259-16.259v-257.313c0-8.979,7.279-16.258,16.259-16.258
	s16.259,7.279,16.259,16.258v257.313C1538.328,1871.302,1531.048,1878.582,1522.069,1878.582z"/>
<path fill="#FFFFFF" d="M1522.06,1878.582c-3.647,0-7.314-1.22-10.346-3.724c-6.923-5.72-7.899-15.967-2.181-22.89l212.563-257.314
	c5.719-6.923,15.967-7.897,22.89-2.18c6.923,5.719,7.899,15.967,2.181,22.89l-212.563,257.313
	C1531.389,1876.569,1526.742,1878.582,1522.06,1878.582z"/>
<path fill="#FFFFFF" d="M1742.192,1878.582c-4.362,0-8.712-1.745-11.915-5.192l-112.26-120.831
	c-6.112-6.578-5.733-16.866,0.845-22.978c6.579-6.111,16.865-5.733,22.978,0.845l112.26,120.831
	c6.112,6.578,5.733,16.866-0.845,22.978C1750.124,1877.142,1746.153,1878.582,1742.192,1878.582z"/>
<path fill="#FFFFFF" d="M1946.858,1878.582h-100.932v-32.518h100.932c25.84,0,50.102-11.256,68.314-31.695
	c18.825-21.126,29.192-49.786,29.192-80.702h32.518c0,38.903-13.294,75.246-37.433,102.336
	C2014.982,1863.459,1982.099,1878.582,1946.858,1878.582z"/>
<path fill="#FFFFFF" d="M1403.002,1878.582h-182.997c-8.979,0-16.259-7.279-16.259-16.259s7.279-16.259,16.259-16.259h182.997
	c8.979,0,16.259,7.279,16.259,16.259S1411.982,1878.582,1403.002,1878.582z"/>
<path fill="#FFFFFF" d="M806.065,1878.582c-8.979,0-16.259-7.279-16.259-16.259v-118.596H609.762v118.596
	c0,8.979-7.279,16.259-16.259,16.259s-16.258-7.279-16.258-16.259v-257.313c0-8.979,7.279-16.258,16.258-16.258
	s16.259,7.279,16.259,16.258v106.201h180.044v-106.201c0-8.979,7.279-16.258,16.259-16.258s16.259,7.279,16.259,16.258v257.313
	C822.324,1871.302,815.044,1878.582,806.065,1878.582z"/>
<g>
	<linearGradient id="SVGID_1_" gradientUnits="userSpaceOnUse" x1="1443.9331" y1="166.5352" x2="880.3132" y2="1142.7534">
		<stop  offset="0" style="stop-color:#B92233"/>
		<stop  offset="0.8" style="stop-color:#4E1E3D"/>
	</linearGradient>
	<path fill="url(#SVGID_1_)" d="M1665.641,401.773c-92.619-184.296-283.31-310.747-503.52-310.747
		c-311.073,0-563.252,252.34-563.252,563.617s252.179,563.617,563.252,563.617c221.418,0,412.994-127.841,505.034-313.784
		l-74.23-37.14c-78.179,158.412-241.717,267.425-430.804,267.425c-264.988,0-479.806-214.107-479.806-478.22
		c0-264.114,214.817-478.221,479.806-478.221c186.661,0,348.428,106.239,427.753,261.36L1665.641,401.773z"/>
	<linearGradient id="SVGID_2_" gradientUnits="userSpaceOnUse" x1="1389.8472" y1="261.6021" x2="938.1923" y2="1043.8911">
		<stop  offset="0" style="stop-color:#B92233"/>
		<stop  offset="0.8" style="stop-color:#4E1E3D"/>
	</linearGradient>
	<path fill="url(#SVGID_2_)" d="M1567.817,450.717c-74.103-148.014-227.094-249.624-403.797-249.624
		c-249.28,0-451.359,202.211-451.359,451.652c0,249.441,202.079,451.653,451.359,451.653c176.703,0,329.694-101.61,403.797-249.624
		l-77.113-38.581c-59.657,121.265-184.379,204.707-328.582,204.707c-202.146,0-366.019-163.979-366.019-366.256
		s163.873-366.256,366.019-366.256c142.995,0,266.835,82.05,327.071,201.666L1567.817,450.717z"/>
	<linearGradient id="SVGID_3_" gradientUnits="userSpaceOnUse" x1="1331.2573" y1="359.7988" x2="992.9907" y2="945.6938">
		<stop  offset="0" style="stop-color:#B92233"/>
		<stop  offset="0.8" style="stop-color:#4E1E3D"/>
	</linearGradient>
	<path fill="url(#SVGID_3_)" d="M1465.397,500.815c-55.889-110.248-170.709-185.86-303.275-185.86
		c-187.48,0-339.466,151.234-339.466,337.791c0,186.559,151.985,337.791,339.466,337.791c132.566,0,247.387-75.611,303.275-185.859
		l-77.598-38.633c-41.636,83.581-127.904,140.994-227.571,140.994c-140.354,0-254.128-113.85-254.128-254.292
		c0-140.441,113.774-254.291,254.128-254.291c99.667,0,185.936,57.413,227.571,140.994L1465.397,500.815z"/>
	<linearGradient id="SVGID_4_" gradientUnits="userSpaceOnUse" x1="1275.0366" y1="455.2764" x2="1049.2086" y2="846.4219">
		<stop  offset="0" style="stop-color:#B92233"/>
		<stop  offset="0.8" style="stop-color:#4E1E3D"/>
	</linearGradient>
	<path fill="url(#SVGID_4_)" d="M1365.147,552.116c-36.611-75.244-113.766-127.094-203.025-127.094
		c-124.639,0-225.679,101.105-225.679,225.825c0,124.721,101.04,225.829,225.679,225.829c88.053,0,164.324-50.458,201.519-124.056
		l-77.112-38.581c-22.746,46.847-70.757,79.137-126.3,79.137c-77.508,0-140.339-62.874-140.339-140.43
		c0-77.556,62.831-140.429,140.339-140.429c55.543,0,103.554,32.29,126.3,79.136L1365.147,552.116z"/>
</g>
</svg>
